<mxfile host="app.diagrams.net" modified="2023-01-05T12:59:34.748Z" agent="5.0 (Macintosh; Intel Mac OS X 10_15_7) AppleWebKit/605.1.15 (KHTML, like Gecko) Version/16.2 Safari/605.1.15" etag="9phWdGWWg_56vDuLK4ia" version="20.7.4" type="github">
  <diagram id="OsOMGD-ik3Zf7SZOt8np" name="Page-1">
    <mxGraphModel dx="1697" dy="1526" grid="1" gridSize="10" guides="1" tooltips="1" connect="1" arrows="1" fold="1" page="1" pageScale="1" pageWidth="827" pageHeight="1169" math="0" shadow="0">
      <root>
        <mxCell id="0" />
        <mxCell id="1" parent="0" />
        <mxCell id="JS9AjzZ9kIchDXuZYbvt-4" style="edgeStyle=orthogonalEdgeStyle;rounded=0;orthogonalLoop=1;jettySize=auto;html=1;entryX=0.5;entryY=0;entryDx=0;entryDy=0;" parent="1" source="JS9AjzZ9kIchDXuZYbvt-3" target="JS9AjzZ9kIchDXuZYbvt-5" edge="1">
          <mxGeometry relative="1" as="geometry">
            <mxPoint x="340" y="120" as="targetPoint" />
          </mxGeometry>
        </mxCell>
        <mxCell id="JS9AjzZ9kIchDXuZYbvt-3" value="range1(a,b)" style="rounded=1;whiteSpace=wrap;html=1;" parent="1" vertex="1">
          <mxGeometry x="280" width="120" height="80" as="geometry" />
        </mxCell>
        <mxCell id="JS9AjzZ9kIchDXuZYbvt-6" style="edgeStyle=orthogonalEdgeStyle;rounded=0;orthogonalLoop=1;jettySize=auto;html=1;fontFamily=Helvetica;fontSize=12;fontColor=default;entryX=0.5;entryY=0;entryDx=0;entryDy=0;" parent="1" source="JS9AjzZ9kIchDXuZYbvt-5" target="JS9AjzZ9kIchDXuZYbvt-7" edge="1">
          <mxGeometry x="1" y="28" relative="1" as="geometry">
            <mxPoint x="340" y="240" as="targetPoint" />
            <mxPoint x="-8" y="20" as="offset" />
          </mxGeometry>
        </mxCell>
        <mxCell id="JS9AjzZ9kIchDXuZYbvt-5" value="multiplyValue = 0" style="rounded=0;whiteSpace=wrap;html=1;strokeColor=default;fontFamily=Helvetica;fontSize=12;fontColor=default;fillColor=default;" parent="1" vertex="1">
          <mxGeometry x="280" y="120" width="120" height="80" as="geometry" />
        </mxCell>
        <mxCell id="JS9AjzZ9kIchDXuZYbvt-9" style="edgeStyle=orthogonalEdgeStyle;rounded=0;orthogonalLoop=1;jettySize=auto;html=1;fontFamily=Helvetica;fontSize=12;fontColor=default;entryX=0.5;entryY=0;entryDx=0;entryDy=0;" parent="1" source="JS9AjzZ9kIchDXuZYbvt-7" target="JS9AjzZ9kIchDXuZYbvt-10" edge="1">
          <mxGeometry relative="1" as="geometry">
            <mxPoint x="340" y="360" as="targetPoint" />
          </mxGeometry>
        </mxCell>
        <mxCell id="JS9AjzZ9kIchDXuZYbvt-7" value="a!=b" style="rhombus;whiteSpace=wrap;html=1;rounded=1;strokeColor=default;fontFamily=Helvetica;fontSize=12;fontColor=default;fillColor=default;" parent="1" vertex="1">
          <mxGeometry x="280" y="240" width="120" height="80" as="geometry" />
        </mxCell>
        <mxCell id="JS9AjzZ9kIchDXuZYbvt-12" style="edgeStyle=orthogonalEdgeStyle;rounded=0;orthogonalLoop=1;jettySize=auto;html=1;fontFamily=Helvetica;fontSize=12;fontColor=default;entryX=0.5;entryY=0;entryDx=0;entryDy=0;" parent="1" source="JS9AjzZ9kIchDXuZYbvt-10" target="JS9AjzZ9kIchDXuZYbvt-11" edge="1">
          <mxGeometry relative="1" as="geometry">
            <mxPoint x="340" y="480" as="targetPoint" />
            <Array as="points" />
          </mxGeometry>
        </mxCell>
        <mxCell id="JS9AjzZ9kIchDXuZYbvt-10" value="multiplyValue++,&lt;br&gt;a++" style="rounded=0;whiteSpace=wrap;html=1;strokeColor=default;fontFamily=Helvetica;fontSize=12;fontColor=default;fillColor=default;" parent="1" vertex="1">
          <mxGeometry x="280" y="360" width="120" height="80" as="geometry" />
        </mxCell>
        <mxCell id="JS9AjzZ9kIchDXuZYbvt-11" value="return multiplyValue" style="rounded=1;whiteSpace=wrap;html=1;strokeColor=default;fontFamily=Helvetica;fontSize=12;fontColor=default;fillColor=default;" parent="1" vertex="1">
          <mxGeometry x="280" y="480" width="120" height="100" as="geometry" />
        </mxCell>
        <mxCell id="JS9AjzZ9kIchDXuZYbvt-13" style="edgeStyle=orthogonalEdgeStyle;rounded=0;orthogonalLoop=1;jettySize=auto;html=1;entryX=0.5;entryY=0;entryDx=0;entryDy=0;" parent="1" source="JS9AjzZ9kIchDXuZYbvt-14" target="JS9AjzZ9kIchDXuZYbvt-16" edge="1">
          <mxGeometry relative="1" as="geometry">
            <mxPoint x="590" y="120" as="targetPoint" />
          </mxGeometry>
        </mxCell>
        <mxCell id="JS9AjzZ9kIchDXuZYbvt-14" value="range2(a,b)" style="rounded=1;whiteSpace=wrap;html=1;" parent="1" vertex="1">
          <mxGeometry x="530" width="120" height="80" as="geometry" />
        </mxCell>
        <mxCell id="JS9AjzZ9kIchDXuZYbvt-15" style="edgeStyle=orthogonalEdgeStyle;rounded=0;orthogonalLoop=1;jettySize=auto;html=1;fontFamily=Helvetica;fontSize=12;fontColor=default;entryX=0.5;entryY=0;entryDx=0;entryDy=0;" parent="1" source="JS9AjzZ9kIchDXuZYbvt-16" target="JS9AjzZ9kIchDXuZYbvt-18" edge="1">
          <mxGeometry x="1" y="28" relative="1" as="geometry">
            <mxPoint x="590" y="240" as="targetPoint" />
            <mxPoint x="-8" y="20" as="offset" />
          </mxGeometry>
        </mxCell>
        <mxCell id="JS9AjzZ9kIchDXuZYbvt-16" value="multiplyValue = 0" style="rounded=0;whiteSpace=wrap;html=1;strokeColor=default;fontFamily=Helvetica;fontSize=12;fontColor=default;fillColor=default;" parent="1" vertex="1">
          <mxGeometry x="530" y="120" width="120" height="80" as="geometry" />
        </mxCell>
        <mxCell id="JS9AjzZ9kIchDXuZYbvt-17" style="edgeStyle=orthogonalEdgeStyle;rounded=0;orthogonalLoop=1;jettySize=auto;html=1;fontFamily=Helvetica;fontSize=12;fontColor=default;entryX=0.5;entryY=0;entryDx=0;entryDy=0;" parent="1" source="JS9AjzZ9kIchDXuZYbvt-18" target="JS9AjzZ9kIchDXuZYbvt-20" edge="1">
          <mxGeometry relative="1" as="geometry">
            <mxPoint x="590" y="360" as="targetPoint" />
          </mxGeometry>
        </mxCell>
        <mxCell id="JS9AjzZ9kIchDXuZYbvt-18" value="a!=b" style="rhombus;whiteSpace=wrap;html=1;rounded=1;strokeColor=default;fontFamily=Helvetica;fontSize=12;fontColor=default;fillColor=default;" parent="1" vertex="1">
          <mxGeometry x="530" y="240" width="120" height="80" as="geometry" />
        </mxCell>
        <mxCell id="JS9AjzZ9kIchDXuZYbvt-19" style="edgeStyle=orthogonalEdgeStyle;rounded=0;orthogonalLoop=1;jettySize=auto;html=1;fontFamily=Helvetica;fontSize=12;fontColor=default;entryX=0.5;entryY=0;entryDx=0;entryDy=0;" parent="1" source="JS9AjzZ9kIchDXuZYbvt-20" target="JS9AjzZ9kIchDXuZYbvt-21" edge="1">
          <mxGeometry relative="1" as="geometry">
            <mxPoint x="590" y="480" as="targetPoint" />
            <Array as="points" />
          </mxGeometry>
        </mxCell>
        <mxCell id="JS9AjzZ9kIchDXuZYbvt-20" value="multiplyValue++,&lt;br&gt;a—" style="rounded=0;whiteSpace=wrap;html=1;strokeColor=default;fontFamily=Helvetica;fontSize=12;fontColor=default;fillColor=default;" parent="1" vertex="1">
          <mxGeometry x="530" y="360" width="120" height="80" as="geometry" />
        </mxCell>
        <mxCell id="JS9AjzZ9kIchDXuZYbvt-21" value="return multiplyValue" style="rounded=1;whiteSpace=wrap;html=1;strokeColor=default;fontFamily=Helvetica;fontSize=12;fontColor=default;fillColor=default;" parent="1" vertex="1">
          <mxGeometry x="530" y="480" width="120" height="100" as="geometry" />
        </mxCell>
        <mxCell id="JS9AjzZ9kIchDXuZYbvt-22" style="edgeStyle=orthogonalEdgeStyle;rounded=0;orthogonalLoop=1;jettySize=auto;html=1;entryX=0.5;entryY=0;entryDx=0;entryDy=0;" parent="1" source="JS9AjzZ9kIchDXuZYbvt-23" target="JS9AjzZ9kIchDXuZYbvt-25" edge="1">
          <mxGeometry relative="1" as="geometry">
            <mxPoint x="820" y="120" as="targetPoint" />
          </mxGeometry>
        </mxCell>
        <mxCell id="JS9AjzZ9kIchDXuZYbvt-23" value="range3(a,b)" style="rounded=1;whiteSpace=wrap;html=1;" parent="1" vertex="1">
          <mxGeometry x="760" width="120" height="80" as="geometry" />
        </mxCell>
        <mxCell id="JS9AjzZ9kIchDXuZYbvt-24" style="edgeStyle=orthogonalEdgeStyle;rounded=0;orthogonalLoop=1;jettySize=auto;html=1;fontFamily=Helvetica;fontSize=12;fontColor=default;entryX=0.5;entryY=0;entryDx=0;entryDy=0;" parent="1" source="JS9AjzZ9kIchDXuZYbvt-25" target="JS9AjzZ9kIchDXuZYbvt-27" edge="1">
          <mxGeometry x="1" y="28" relative="1" as="geometry">
            <mxPoint x="820" y="240" as="targetPoint" />
            <mxPoint x="-8" y="20" as="offset" />
          </mxGeometry>
        </mxCell>
        <mxCell id="JS9AjzZ9kIchDXuZYbvt-25" value="multiplyValue = 2" style="rounded=0;whiteSpace=wrap;html=1;strokeColor=default;fontFamily=Helvetica;fontSize=12;fontColor=default;fillColor=default;" parent="1" vertex="1">
          <mxGeometry x="760" y="120" width="120" height="80" as="geometry" />
        </mxCell>
        <mxCell id="JS9AjzZ9kIchDXuZYbvt-26" style="edgeStyle=orthogonalEdgeStyle;rounded=0;orthogonalLoop=1;jettySize=auto;html=1;fontFamily=Helvetica;fontSize=12;fontColor=default;entryX=0.5;entryY=0;entryDx=0;entryDy=0;" parent="1" source="JS9AjzZ9kIchDXuZYbvt-27" target="JS9AjzZ9kIchDXuZYbvt-29" edge="1">
          <mxGeometry relative="1" as="geometry">
            <mxPoint x="820" y="360" as="targetPoint" />
          </mxGeometry>
        </mxCell>
        <mxCell id="JS9AjzZ9kIchDXuZYbvt-27" value="a!=b" style="rhombus;whiteSpace=wrap;html=1;rounded=1;strokeColor=default;fontFamily=Helvetica;fontSize=12;fontColor=default;fillColor=default;" parent="1" vertex="1">
          <mxGeometry x="760" y="240" width="120" height="80" as="geometry" />
        </mxCell>
        <mxCell id="JS9AjzZ9kIchDXuZYbvt-28" style="edgeStyle=orthogonalEdgeStyle;rounded=0;orthogonalLoop=1;jettySize=auto;html=1;fontFamily=Helvetica;fontSize=12;fontColor=default;entryX=0.5;entryY=0;entryDx=0;entryDy=0;" parent="1" source="JS9AjzZ9kIchDXuZYbvt-29" target="JS9AjzZ9kIchDXuZYbvt-30" edge="1">
          <mxGeometry relative="1" as="geometry">
            <mxPoint x="820" y="480" as="targetPoint" />
            <Array as="points" />
          </mxGeometry>
        </mxCell>
        <mxCell id="JS9AjzZ9kIchDXuZYbvt-29" value="multiplyValue++,&lt;br&gt;a++" style="rounded=0;whiteSpace=wrap;html=1;strokeColor=default;fontFamily=Helvetica;fontSize=12;fontColor=default;fillColor=default;" parent="1" vertex="1">
          <mxGeometry x="760" y="360" width="120" height="80" as="geometry" />
        </mxCell>
        <mxCell id="JS9AjzZ9kIchDXuZYbvt-30" value="return multiplyValue" style="rounded=1;whiteSpace=wrap;html=1;strokeColor=default;fontFamily=Helvetica;fontSize=12;fontColor=default;fillColor=default;" parent="1" vertex="1">
          <mxGeometry x="760" y="480" width="120" height="100" as="geometry" />
        </mxCell>
        <mxCell id="JS9AjzZ9kIchDXuZYbvt-32" style="edgeStyle=orthogonalEdgeStyle;rounded=0;orthogonalLoop=1;jettySize=auto;html=1;entryX=0.5;entryY=0;entryDx=0;entryDy=0;" parent="1" source="JS9AjzZ9kIchDXuZYbvt-33" target="JS9AjzZ9kIchDXuZYbvt-35" edge="1">
          <mxGeometry relative="1" as="geometry">
            <mxPoint x="1060" y="120" as="targetPoint" />
          </mxGeometry>
        </mxCell>
        <mxCell id="JS9AjzZ9kIchDXuZYbvt-33" value="range4(a,b)" style="rounded=1;whiteSpace=wrap;html=1;" parent="1" vertex="1">
          <mxGeometry x="1000" width="120" height="80" as="geometry" />
        </mxCell>
        <mxCell id="JS9AjzZ9kIchDXuZYbvt-34" style="edgeStyle=orthogonalEdgeStyle;rounded=0;orthogonalLoop=1;jettySize=auto;html=1;fontFamily=Helvetica;fontSize=12;fontColor=default;entryX=0.5;entryY=0;entryDx=0;entryDy=0;" parent="1" source="JS9AjzZ9kIchDXuZYbvt-35" target="JS9AjzZ9kIchDXuZYbvt-37" edge="1">
          <mxGeometry x="1" y="28" relative="1" as="geometry">
            <mxPoint x="1060" y="240" as="targetPoint" />
            <mxPoint x="-8" y="20" as="offset" />
          </mxGeometry>
        </mxCell>
        <mxCell id="JS9AjzZ9kIchDXuZYbvt-35" value="multiplyValue = 2" style="rounded=0;whiteSpace=wrap;html=1;strokeColor=default;fontFamily=Helvetica;fontSize=12;fontColor=default;fillColor=default;" parent="1" vertex="1">
          <mxGeometry x="1000" y="120" width="120" height="80" as="geometry" />
        </mxCell>
        <mxCell id="JS9AjzZ9kIchDXuZYbvt-36" style="edgeStyle=orthogonalEdgeStyle;rounded=0;orthogonalLoop=1;jettySize=auto;html=1;fontFamily=Helvetica;fontSize=12;fontColor=default;" parent="1" source="JS9AjzZ9kIchDXuZYbvt-37" target="JS9AjzZ9kIchDXuZYbvt-39" edge="1">
          <mxGeometry relative="1" as="geometry">
            <mxPoint x="1060" y="360" as="targetPoint" />
          </mxGeometry>
        </mxCell>
        <mxCell id="JS9AjzZ9kIchDXuZYbvt-37" value="a!=b" style="rhombus;whiteSpace=wrap;html=1;rounded=1;strokeColor=default;fontFamily=Helvetica;fontSize=12;fontColor=default;fillColor=default;" parent="1" vertex="1">
          <mxGeometry x="1000" y="240" width="120" height="80" as="geometry" />
        </mxCell>
        <mxCell id="JS9AjzZ9kIchDXuZYbvt-38" style="edgeStyle=orthogonalEdgeStyle;rounded=0;orthogonalLoop=1;jettySize=auto;html=1;fontFamily=Helvetica;fontSize=12;fontColor=default;entryX=0.5;entryY=0;entryDx=0;entryDy=0;" parent="1" source="JS9AjzZ9kIchDXuZYbvt-39" target="JS9AjzZ9kIchDXuZYbvt-40" edge="1">
          <mxGeometry relative="1" as="geometry">
            <mxPoint x="1060" y="480" as="targetPoint" />
            <Array as="points" />
          </mxGeometry>
        </mxCell>
        <mxCell id="HR_ULsvQH8FzLZKK90XC-12" style="edgeStyle=orthogonalEdgeStyle;rounded=0;orthogonalLoop=1;jettySize=auto;html=1;fontFamily=Helvetica;fontSize=12;fontColor=default;entryX=0;entryY=0.5;entryDx=0;entryDy=0;" edge="1" parent="1" source="JS9AjzZ9kIchDXuZYbvt-39" target="JS9AjzZ9kIchDXuZYbvt-37">
          <mxGeometry relative="1" as="geometry">
            <mxPoint x="930" y="210" as="targetPoint" />
            <Array as="points">
              <mxPoint x="950" y="400" />
              <mxPoint x="950" y="280" />
            </Array>
          </mxGeometry>
        </mxCell>
        <mxCell id="JS9AjzZ9kIchDXuZYbvt-39" value="multiplyValue++,&lt;br&gt;a—" style="rounded=0;whiteSpace=wrap;html=1;strokeColor=default;fontFamily=Helvetica;fontSize=12;fontColor=default;fillColor=default;" parent="1" vertex="1">
          <mxGeometry x="1000" y="360" width="120" height="80" as="geometry" />
        </mxCell>
        <mxCell id="JS9AjzZ9kIchDXuZYbvt-40" value="return multiplyValue" style="rounded=1;whiteSpace=wrap;html=1;strokeColor=default;fontFamily=Helvetica;fontSize=12;fontColor=default;fillColor=default;" parent="1" vertex="1">
          <mxGeometry x="1000" y="480" width="120" height="100" as="geometry" />
        </mxCell>
        <mxCell id="HR_ULsvQH8FzLZKK90XC-2" style="edgeStyle=orthogonalEdgeStyle;rounded=0;orthogonalLoop=1;jettySize=auto;html=1;entryX=0.5;entryY=0;entryDx=0;entryDy=0;" edge="1" parent="1" source="HR_ULsvQH8FzLZKK90XC-1" target="HR_ULsvQH8FzLZKK90XC-3">
          <mxGeometry relative="1" as="geometry">
            <mxPoint x="1290" y="120" as="targetPoint" />
          </mxGeometry>
        </mxCell>
        <mxCell id="HR_ULsvQH8FzLZKK90XC-1" value="main()" style="rounded=1;whiteSpace=wrap;html=1;" vertex="1" parent="1">
          <mxGeometry x="1230" width="120" height="80" as="geometry" />
        </mxCell>
        <mxCell id="HR_ULsvQH8FzLZKK90XC-5" style="edgeStyle=orthogonalEdgeStyle;rounded=0;orthogonalLoop=1;jettySize=auto;html=1;entryX=0.5;entryY=0;entryDx=0;entryDy=0;" edge="1" parent="1" source="HR_ULsvQH8FzLZKK90XC-3" target="HR_ULsvQH8FzLZKK90XC-6">
          <mxGeometry relative="1" as="geometry">
            <mxPoint x="1290" y="240" as="targetPoint" />
          </mxGeometry>
        </mxCell>
        <mxCell id="HR_ULsvQH8FzLZKK90XC-3" value="double price = 1.20, multiply, ticket = 0, num3 = 0&lt;br&gt;String name = “”" style="rounded=0;whiteSpace=wrap;html=1;" vertex="1" parent="1">
          <mxGeometry x="1230" y="120" width="120" height="80" as="geometry" />
        </mxCell>
        <mxCell id="HR_ULsvQH8FzLZKK90XC-8" style="edgeStyle=orthogonalEdgeStyle;rounded=0;orthogonalLoop=1;jettySize=auto;html=1;fontFamily=Helvetica;fontSize=12;fontColor=default;" edge="1" parent="1" source="HR_ULsvQH8FzLZKK90XC-6">
          <mxGeometry relative="1" as="geometry">
            <mxPoint x="1290" y="360" as="targetPoint" />
          </mxGeometry>
        </mxCell>
        <mxCell id="HR_ULsvQH8FzLZKK90XC-11" style="edgeStyle=orthogonalEdgeStyle;rounded=0;orthogonalLoop=1;jettySize=auto;html=1;entryX=0.5;entryY=0;entryDx=0;entryDy=0;fontFamily=Helvetica;fontSize=12;fontColor=default;" edge="1" parent="1" source="HR_ULsvQH8FzLZKK90XC-6">
          <mxGeometry relative="1" as="geometry">
            <mxPoint x="1290" y="360" as="targetPoint" />
          </mxGeometry>
        </mxCell>
        <mxCell id="HR_ULsvQH8FzLZKK90XC-6" value="Display main&lt;br&gt;menu" style="shape=parallelogram;perimeter=parallelogramPerimeter;whiteSpace=wrap;html=1;fixedSize=1;" vertex="1" parent="1">
          <mxGeometry x="1230" y="240" width="120" height="80" as="geometry" />
        </mxCell>
        <mxCell id="HR_ULsvQH8FzLZKK90XC-13" value="True" style="text;html=1;strokeColor=none;fillColor=none;align=center;verticalAlign=middle;whiteSpace=wrap;rounded=0;fontFamily=Helvetica;fontSize=12;fontColor=default;rotation=0;" vertex="1" parent="1">
          <mxGeometry x="1060" y="320" width="60" height="29" as="geometry" />
        </mxCell>
        <mxCell id="HR_ULsvQH8FzLZKK90XC-19" value="False" style="text;html=1;strokeColor=none;fillColor=none;align=center;verticalAlign=middle;whiteSpace=wrap;rounded=0;fontFamily=Helvetica;fontSize=12;fontColor=default;" vertex="1" parent="1">
          <mxGeometry x="890" y="310" width="60" height="30" as="geometry" />
        </mxCell>
        <mxCell id="HR_ULsvQH8FzLZKK90XC-20" style="edgeStyle=orthogonalEdgeStyle;rounded=0;orthogonalLoop=1;jettySize=auto;html=1;fontFamily=Helvetica;fontSize=12;fontColor=default;entryX=0;entryY=0.5;entryDx=0;entryDy=0;" edge="1" parent="1">
          <mxGeometry relative="1" as="geometry">
            <mxPoint x="760" y="280" as="targetPoint" />
            <mxPoint x="760" y="400" as="sourcePoint" />
            <Array as="points">
              <mxPoint x="710" y="400" />
              <mxPoint x="710" y="280" />
            </Array>
          </mxGeometry>
        </mxCell>
        <mxCell id="HR_ULsvQH8FzLZKK90XC-21" value="False" style="text;html=1;strokeColor=none;fillColor=none;align=center;verticalAlign=middle;whiteSpace=wrap;rounded=0;fontFamily=Helvetica;fontSize=12;fontColor=default;" vertex="1" parent="1">
          <mxGeometry x="650" y="310" width="60" height="30" as="geometry" />
        </mxCell>
        <mxCell id="HR_ULsvQH8FzLZKK90XC-22" style="edgeStyle=orthogonalEdgeStyle;rounded=0;orthogonalLoop=1;jettySize=auto;html=1;fontFamily=Helvetica;fontSize=12;fontColor=default;entryX=0;entryY=0.5;entryDx=0;entryDy=0;" edge="1" parent="1">
          <mxGeometry relative="1" as="geometry">
            <mxPoint x="530" y="280" as="targetPoint" />
            <mxPoint x="530" y="400" as="sourcePoint" />
            <Array as="points">
              <mxPoint x="480" y="400" />
              <mxPoint x="480" y="280" />
            </Array>
          </mxGeometry>
        </mxCell>
        <mxCell id="HR_ULsvQH8FzLZKK90XC-23" value="False" style="text;html=1;strokeColor=none;fillColor=none;align=center;verticalAlign=middle;whiteSpace=wrap;rounded=0;fontFamily=Helvetica;fontSize=12;fontColor=default;" vertex="1" parent="1">
          <mxGeometry x="420" y="310" width="60" height="30" as="geometry" />
        </mxCell>
        <mxCell id="HR_ULsvQH8FzLZKK90XC-24" style="edgeStyle=orthogonalEdgeStyle;rounded=0;orthogonalLoop=1;jettySize=auto;html=1;fontFamily=Helvetica;fontSize=12;fontColor=default;entryX=0;entryY=0.5;entryDx=0;entryDy=0;" edge="1" parent="1">
          <mxGeometry relative="1" as="geometry">
            <mxPoint x="280" y="280" as="targetPoint" />
            <mxPoint x="280" y="400" as="sourcePoint" />
            <Array as="points">
              <mxPoint x="230" y="400" />
              <mxPoint x="230" y="280" />
            </Array>
          </mxGeometry>
        </mxCell>
        <mxCell id="HR_ULsvQH8FzLZKK90XC-25" value="False" style="text;html=1;strokeColor=none;fillColor=none;align=center;verticalAlign=middle;whiteSpace=wrap;rounded=0;fontFamily=Helvetica;fontSize=12;fontColor=default;" vertex="1" parent="1">
          <mxGeometry x="170" y="310" width="60" height="30" as="geometry" />
        </mxCell>
        <mxCell id="HR_ULsvQH8FzLZKK90XC-26" value="True" style="text;html=1;strokeColor=none;fillColor=none;align=center;verticalAlign=middle;whiteSpace=wrap;rounded=0;fontFamily=Helvetica;fontSize=12;fontColor=default;rotation=0;" vertex="1" parent="1">
          <mxGeometry x="820" y="320" width="60" height="30" as="geometry" />
        </mxCell>
        <mxCell id="HR_ULsvQH8FzLZKK90XC-27" value="True" style="text;html=1;strokeColor=none;fillColor=none;align=center;verticalAlign=middle;whiteSpace=wrap;rounded=0;fontFamily=Helvetica;fontSize=12;fontColor=default;rotation=0;" vertex="1" parent="1">
          <mxGeometry x="590" y="321" width="60" height="29" as="geometry" />
        </mxCell>
        <mxCell id="HR_ULsvQH8FzLZKK90XC-28" value="True" style="text;html=1;strokeColor=none;fillColor=none;align=center;verticalAlign=middle;whiteSpace=wrap;rounded=0;fontFamily=Helvetica;fontSize=12;fontColor=default;rotation=0;" vertex="1" parent="1">
          <mxGeometry x="340" y="320" width="60" height="29" as="geometry" />
        </mxCell>
        <mxCell id="HR_ULsvQH8FzLZKK90XC-32" style="edgeStyle=orthogonalEdgeStyle;rounded=0;orthogonalLoop=1;jettySize=auto;html=1;fontFamily=Helvetica;fontSize=12;fontColor=default;entryX=0.5;entryY=0;entryDx=0;entryDy=0;" edge="1" parent="1" source="HR_ULsvQH8FzLZKK90XC-30" target="HR_ULsvQH8FzLZKK90XC-33">
          <mxGeometry relative="1" as="geometry">
            <mxPoint x="1290" y="480" as="targetPoint" />
          </mxGeometry>
        </mxCell>
        <mxCell id="HR_ULsvQH8FzLZKK90XC-30" value="switch(num2)&lt;br&gt;" style="rounded=0;whiteSpace=wrap;html=1;strokeColor=default;fontFamily=Helvetica;fontSize=12;fontColor=default;fillColor=default;" vertex="1" parent="1">
          <mxGeometry x="1230" y="360" width="120" height="80" as="geometry" />
        </mxCell>
        <mxCell id="HR_ULsvQH8FzLZKK90XC-35" style="edgeStyle=orthogonalEdgeStyle;rounded=0;orthogonalLoop=1;jettySize=auto;html=1;fontFamily=Helvetica;fontSize=12;fontColor=default;" edge="1" parent="1" source="HR_ULsvQH8FzLZKK90XC-33">
          <mxGeometry relative="1" as="geometry">
            <mxPoint x="1400" y="520" as="targetPoint" />
          </mxGeometry>
        </mxCell>
        <mxCell id="HR_ULsvQH8FzLZKK90XC-33" value="case 1" style="rhombus;whiteSpace=wrap;html=1;strokeColor=default;fontFamily=Helvetica;fontSize=12;fontColor=default;fillColor=default;" vertex="1" parent="1">
          <mxGeometry x="1225" y="480" width="130" height="80" as="geometry" />
        </mxCell>
        <mxCell id="HR_ULsvQH8FzLZKK90XC-36" value="" style="rounded=0;whiteSpace=wrap;html=1;strokeColor=default;fontFamily=Helvetica;fontSize=12;fontColor=default;fillColor=default;" vertex="1" parent="1">
          <mxGeometry x="1400" y="490" width="120" height="60" as="geometry" />
        </mxCell>
      </root>
    </mxGraphModel>
  </diagram>
</mxfile>
